<?xml version="1.0" standalone="no"?><!DOCTYPE svg PUBLIC "-//W3C//DTD SVG 1.1//EN" "http://www.w3.org/Graphics/SVG/1.1/DTD/svg11.dtd"><svg t="1560320492702" class="icon" style="" viewBox="0 0 1024 1024" version="1.1" xmlns="http://www.w3.org/2000/svg" p-id="2835" xmlns:xlink="http://www.w3.org/1999/xlink" width="200" height="200"><defs><style type="text/css"></style></defs><path d="M744.755 199.227c-65.345-49.099-146.593-78.192-234.617-78.192-215.929 0-390.965 175.017-390.965 390.964 0 61.126 14.03 118.97 39.038 170.515l-48.574 34.016C78.243 655.176 60.527 585.65 60.527 512c0-248.323 201.296-449.61 449.61-449.61 102.992 0 197.869 34.63 273.675 92.854V91.635c0-16.15 13.02-29.246 29.323-29.246 16.207 0 29.322 13.134 29.322 29.246v136.952a29.176 29.176 0 0 1-8.534 20.694c-5.364 5.308-12.676 8.591-20.732 8.591h-136.95c-16.15 0-29.265-13.02-29.265-29.322 0-16.187 13.134-29.321 29.265-29.321h68.514zM275.52 824.771c65.344 49.1 146.582 78.195 234.616 78.195 215.929 0 390.965-175.057 390.965-390.966 0-49.557-9.22-96.939-26.02-140.54l49.31-34.516C947.169 390.74 959.749 449.881 959.749 512c0 248.286-201.306 449.611-449.61 449.611-102.981 0-197.868-34.63-273.675-92.855v63.571c0 16.187-13.02 29.284-29.323 29.284-16.197 0-29.322-13.135-29.322-29.284V795.374c0-8.057 3.246-15.385 8.525-20.657 5.373-5.306 12.684-8.59 20.74-8.59h136.953c16.16 0 29.266 13.02 29.266 29.322 0 16.188-13.135 29.321-29.266 29.321h-68.515z" p-id="2836" fill="#ffffff"></path></svg>